<mxfile host="app.diagrams.net" modified="2023-12-01T17:17:51.281Z" agent="Mozilla/5.0 (Macintosh; Intel Mac OS X 10_15_7) AppleWebKit/537.36 (KHTML, like Gecko) Chrome/119.0.0.0 Safari/537.36 Edg/119.0.0.0" version="21.7.5" etag="Lyqlje_Aau7mut2Xm4Q1" type="github">
  <diagram name="Page-1" id="8cnXgxALqramYJoQKgxt">
    <mxGraphModel>
      <root>
        <mxCell id="0" />
        <mxCell id="1" parent="0" />
      </root>
    </mxGraphModel>
  </diagram>
</mxfile>
